# xmcd
#
# Track frame offsets:
#	150
#	15160
#	28826
#	45557
#	60043
#	75130
#	88734
#	104006
#	117919
#	132605
#	148733
#	161811
#	179115
#	191284
#
# Disc length: 2801 seconds
#
# Revision: 0
# Processed by: cddbd v1.5.2PL0 Copyright (c) Steve Scherf et al.
# Submitted via: FairStars CD Ripper 1.30
#
DISCID=b50aef0e
DTITLE=Lee Greenwood - Greatest Hits
DYEAR=2007
DGENRE=Country
TTITLE0=Dixe Road
TTITLE1=Don't Underestimate My Love For You
TTITLE2=Fool's Gold
TTITLE3=God Bless The U.S.A.
TTITLE4=Going, Going, Gone
TTITLE5=Hearts Aren't Made To Break (They're Made To Love)
TTITLE6=I Don't Mind The Thorns If You're The Rose
TTITLE7=I.O.U.
TTITLE8=Mornin' Ride
TTITLE9=Somebody's Gonna Love You
TTITLE10=Touch And Go Crazy
TTITLE11=One Day At A Time
TTITLE12=You'll Never Walk Alone
TTITLE13=Totally Devoted To You
EXTD=
EXTT0=
EXTT1=
EXTT2=
EXTT3=
EXTT4=
EXTT5=
EXTT6=
EXTT7=
EXTT8=
EXTT9=
EXTT10=
EXTT11=
EXTT12=
EXTT13=
PLAYORDER=
